<?xml version="1.0" standalone="no"?>
<!DOCTYPE svg PUBLIC "-//W3C//DTD SVG 1.1//EN"
 "http://www.w3.org/Graphics/SVG/1.1/DTD/svg11.dtd">
<svg width="640" height="400" version="1.1"
 xmlns="http://www.w3.org/2000/svg" xmlns:xlink="http://www.w3.org/1999/xlink">
<line x1="325.625" y1="250.923" x2="271.875" y2="250.951" fill="none" stroke ="green" stroke-width="1" />
<line x1="383.484" y1="154.359" x2="381.75" y2="248.123" fill="none" stroke ="green" stroke-width="1" />
<line x1="273.495" y1="156.882" x2="271.736" y2="246.872" fill="none" stroke ="green" stroke-width="1" />
<line x1="275.625" y1="249.354" x2="379.367" y2="247.657" fill="none" stroke ="green" stroke-width="1" />
<line x1="269.876" y1="250.631" x2="271.114" y2="153.115" fill="none" stroke ="green" stroke-width="1" />
<line x1="275.626" y1="151.983" x2="379.376" y2="150.742" fill="none" stroke ="green" stroke-width="1" />
<line x1="379.374" y1="153.006" x2="275.639" y2="154.264" fill="none" stroke ="green" stroke-width="1" />
<line x1="326.73" y1="81.9966" x2="384.906" y2="151.229" fill="none" stroke ="green" stroke-width="1" />
<line x1="380.625" y1="249.893" x2="326.875" y2="249.918" fill="none" stroke ="green" stroke-width="1" />
<line x1="272.666" y1="149.005" x2="324.597" y2="84.5538" fill="none" stroke ="green" stroke-width="1" />
<line x1="379.284" y1="156.772" x2="329.573" y2="200.848" fill="none" stroke ="green" stroke-width="1" />
<line x1="272.878" y1="247.846" x2="323.931" y2="202.623" fill="none" stroke ="green" stroke-width="1" />
<line x1="341.529" y1="103.414" x2="327.979" y2="87.2022" fill="none" stroke ="green" stroke-width="1" />
<line x1="324.23" y1="200.79" x2="274.418" y2="156.827" fill="none" stroke ="green" stroke-width="1" />
<line x1="376.577" y1="247.213" x2="327.394" y2="203.787" fill="none" stroke ="green" stroke-width="1" />
<line x1="325.778" y1="86.998" x2="275.033" y2="149.906" fill="none" stroke ="green" stroke-width="1" />
</svg>